Coordinates
version=1
nRows=38
nColumns=12
inDegrees=yes

Units are S.I. units (second, meters, Newtons, ...)
Angles are in degrees

endheader
time	SC_y	SC_z	SC_x	AC_y	AC_z	AC_x	GH_y	GH_z	GH_yy	EL_x	PS_y
       0.0              -25.19          16.37          62.26           60.4          3.503          16.76         -97.69          42.82         -37.88           42.3          139.4
   0.02686              -25.19          16.37          62.26           60.4          3.501          16.76         -97.69          42.82         -37.89           42.3          139.4
   0.05372              -25.19          16.38          62.26           60.4            3.5          16.76          -97.7          42.81         -37.91           42.3          139.4
   0.08058               -25.2          16.38          62.26           60.4          3.497          16.76          -97.7          42.81         -37.92           42.3          139.4
    0.1074               -25.2          16.38          62.26           60.4          3.495          16.76         -97.71           42.8         -37.94           42.3          139.4
    0.1343              -25.21          16.38          62.27           60.4          3.493          16.76         -97.71           42.8         -37.96           42.3          139.4
    0.1612              -25.21          16.39          62.27          60.41           3.49          16.76         -97.72          42.79         -37.98           42.3          139.4
     0.188              -25.22          16.39          62.27          60.41          3.487          16.76         -97.72          42.78          -38.0           42.3          139.4
    0.2149              -25.22          16.39          62.27          60.41          3.484          16.76         -97.73          42.78         -38.02           42.3          139.4
    0.2417              -25.23          16.39          62.27          60.41          3.481          16.76         -97.74          42.77         -38.04           42.3          139.3
    0.2686              -25.24           16.4          62.27          60.41          3.478          16.75         -97.75          42.76         -38.06           42.3          139.3
    0.2955              -25.24           16.4          62.28          60.41          3.474          16.75         -97.76          42.75         -38.09           42.3          139.3
    0.3223              -25.25          16.41          62.28          60.41           3.47          16.75         -97.77          42.74         -38.12           42.3          139.3
    0.3492              -25.26          16.41          62.28          60.41          3.466          16.75         -97.78          42.73         -38.15           42.3          139.3
     0.376              -25.27          16.42          62.28          60.41          3.461          16.75         -97.79          42.72         -38.18           42.3          139.3
    0.4029              -25.28          16.42          62.29          60.41          3.457          16.75          -97.8           42.7         -38.22           42.3          139.3
    0.4298              -25.29          16.43          62.29          60.42          3.451          16.75         -97.81          42.69         -38.26           42.3          139.3
    0.4566               -25.3          16.43          62.29          60.42          3.445          16.75         -97.83          42.67          -38.3           42.3          139.3
    0.4835              -25.31          16.44           62.3          60.42          3.439          16.74         -97.84          42.66         -38.35           42.3          139.3
    0.5103              -25.33          16.45           62.3          60.42          3.432          16.74         -97.86          42.64          -38.4          42.31          139.2
    0.5372              -25.34          16.46          62.31          60.42          3.424          16.74         -97.88          42.62         -38.46          42.31          139.2
    0.5641              -25.36          16.47          62.31          60.43          3.415          16.74          -97.9           42.6         -38.52          42.31          139.2
    0.5909              -25.38          16.48          62.32          60.43          3.406          16.73         -97.92          42.57         -38.59          42.31          139.2
    0.6178               -25.4          16.49          62.32          60.43          3.396          16.73         -97.94          42.54         -38.66          42.31          139.2
    0.6446              -25.42           16.5          62.33          60.43          3.384          16.73         -97.97          42.51         -38.74          42.31          139.1
    0.6715              -25.45          16.51          62.34          60.44          3.371          16.72          -98.0          42.48         -38.84          42.31          139.1
    0.6984              -25.47          16.53          62.35          60.44          3.356          16.72         -98.04          42.44         -38.94          42.31          139.1
    0.7252              -25.51          16.55          62.36          60.45           3.34          16.72         -98.08           42.4         -39.06          42.31          139.0
    0.7521              -25.54          16.57          62.37          60.45          3.322          16.71         -98.12          42.35         -39.19          42.31          139.0
    0.7789              -25.58          16.59          62.38          60.46          3.301          16.71         -98.17           42.3         -39.35          42.31          139.0
    0.8058              -25.63          16.61          62.39          60.46          3.277           16.7         -98.23          42.23         -39.52          42.31          138.9
    0.8327              -25.68          16.64          62.41          60.47          3.249          16.69          -98.3          42.16         -39.72          42.31          138.9
    0.8595              -25.75          16.68          62.43          60.48          3.218          16.68         -98.37          42.08         -39.95          42.31          138.8
    0.8864              -25.82          16.72          62.45          60.49          3.181          16.67         -98.46          41.99         -40.21          42.31          138.7
    0.9132               -25.9          16.76          62.47           60.5          3.138          16.66         -98.56          41.87         -40.52          42.31          138.6
    0.9401               -26.0          16.82           62.5          60.52          3.087          16.65         -98.68          41.74         -40.89          42.31          138.5
     0.967              -26.12          16.88          62.54          60.53          3.027          16.63         -98.83          41.58         -41.33          42.32          138.4
    0.9938              -26.26          16.96          62.58          60.55          2.955          16.61          -99.0           41.4         -41.85          42.32          138.2
